<svg width="256" height="256" viewBox="0 0 256 256" fill="none" xmlns="http://www.w3.org/2000/svg">
<path fill-rule="evenodd" clip-rule="evenodd" d="M120.46 158.29C90.2938 166.94 58.8288 149.498 50.1788 119.333C41.5288 89.168 58.9708 57.703 89.1358 49.053C119.301 40.403 150.766 57.845 159.416 88.01C163.833 103.413 157.479 126.012 150.069 138.882C149.455 139.949 209.281 191.946 209.281 191.946L191.854 209.576L138.34 152.856C138.34 152.856 128.107 156.097 120.46 158.29ZM104 144C126.091 144 144 126.091 144 104C144 81.909 126.091 64 104 64C81.9088 64 63.9998 81.909 63.9998 104C63.9998 126.091 81.9088 144 104 144Z" fill="black"/>
<path fill-rule="evenodd" clip-rule="evenodd" d="M111.912 80.047H95.962V96.084H80V112.076H95.962V128H111.912V112.076H128V96.084H111.912V80.047Z" fill="black"/>
</svg>
