<svg width="20" height="18" viewBox="0 0 20 18" fill="none" xmlns="http://www.w3.org/2000/svg">
<g clip-path="url(#clip0_2310_44)">
<path d="M3.01 14C3.27313 14.0032 3.52441 14.1099 3.70936 14.2971C3.89431 14.4843 3.99802 14.7368 3.998 15H16.002C16.002 14.7348 16.1074 14.4804 16.2949 14.2929C16.4824 14.1054 16.7368 14 17.002 14V4C16.7368 4 16.4824 3.89464 16.2949 3.70711C16.1074 3.51957 16.002 3.26522 16.002 3H4.01C4.01 3.26522 3.90464 3.51957 3.71711 3.70711C3.52957 3.89464 3.27522 4 3.01 4V14ZM3.998 17C3.998 17.2652 3.89264 17.5196 3.70511 17.7071C3.51757 17.8946 3.26322 18 2.998 18H1C0.734784 18 0.48043 17.8946 0.292893 17.7071C0.105357 17.5196 0 17.2652 0 17V15C0 14.7348 0.105357 14.4804 0.292893 14.2929C0.48043 14.1054 0.734784 14 1 14H1.01V4C0.74513 3.99947 0.49129 3.89388 0.304186 3.7064C0.117082 3.51892 0.0119995 3.26487 0.012 3V1C0.0119999 0.734957 0.117219 0.480754 0.30454 0.293247C0.49186 0.105739 0.745957 0.000265043 1.011 0H3.01C3.27522 0 3.52957 0.105357 3.71711 0.292893C3.90464 0.48043 4.01 0.734784 4.01 1H16.002C16.002 0.734784 16.1074 0.48043 16.2949 0.292893C16.4824 0.105357 16.7368 0 17.002 0L19 0C19.2652 0 19.5196 0.105357 19.7071 0.292893C19.8946 0.48043 20 0.734784 20 1V3C20 3.26522 19.8946 3.51957 19.7071 3.70711C19.5196 3.89464 19.2652 4 19 4V14C19.2652 14 19.5196 14.1054 19.7071 14.2929C19.8946 14.4804 20 14.7348 20 15V17C20 17.2652 19.8946 17.5196 19.7071 17.7071C19.5196 17.8946 19.2652 18 19 18H17.002C16.7368 18 16.4824 17.8946 16.2949 17.7071C16.1074 17.5196 16.002 17.2652 16.002 17H3.998Z" fill="white"/>
</g>
<defs>
<clipPath id="clip0_2310_44">
<rect width="20" height="18" fill="white"/>
</clipPath>
</defs>
</svg>
