<svg width="256" height="256" viewBox="0 0 256 256" fill="none" xmlns="http://www.w3.org/2000/svg">
<path d="M188 44C185.302 43.9947 182.614 44.3307 180 45V44C180.007 36.7561 177.556 29.7241 173.048 24.054C168.54 18.3838 162.241 14.4111 155.182 12.7854C148.123 11.1596 140.721 11.9771 134.187 15.1042C127.652 18.2312 122.372 23.4827 119.21 30C114.367 28.1887 109.157 27.5779 104.027 28.2199C98.8963 28.8619 93.9977 30.7376 89.7504 33.6864C85.5031 36.6353 82.0336 40.5694 79.6389 45.1521C77.2442 49.7347 75.9957 54.8294 76.0002 60V110.83C70.7891 104.885 63.5618 101.08 55.7115 100.147C47.8612 99.2146 39.9436 101.221 33.4847 105.779C27.0258 110.338 22.4829 117.126 20.7316 124.835C18.9804 132.544 20.1447 140.628 24.0002 147.53C55.8202 214.6 75.3502 244 128 244C152.392 243.974 175.777 234.272 193.025 217.025C210.272 199.777 219.974 176.392 220 152V76C220 67.5131 216.629 59.3738 210.628 53.3726C204.626 47.3714 196.487 44 188 44ZM196 152C195.979 170.028 188.808 187.312 176.06 200.06C163.312 212.808 146.028 219.979 128 220C92.1702 220 78.2902 206 45.5202 136.86C45.3802 136.57 45.2302 136.28 45.0702 136C44.0751 134.168 43.8349 132.019 44.4006 130.012C44.9664 128.005 46.2935 126.298 48.0992 125.255C49.9048 124.212 52.0464 123.915 54.0676 124.428C56.0889 124.941 57.83 126.222 58.9202 128L59.1302 128.35L77.8102 158.35C79.1881 160.566 81.2504 162.272 83.6849 163.21C86.1194 164.148 88.7933 164.267 91.3017 163.549C93.81 162.832 96.016 161.316 97.5856 159.232C99.1553 157.148 100.003 154.609 100 152V60C100 57.8783 100.843 55.8434 102.343 54.3432C103.844 52.8429 105.878 52 108 52C110.122 52 112.157 52.8429 113.657 54.3432C115.157 55.8434 116 57.8783 116 60V120C116 123.183 117.264 126.235 119.515 128.485C121.765 130.736 124.818 132 128 132C131.183 132 134.235 130.736 136.485 128.485C138.736 126.235 140 123.183 140 120V44C140 41.8783 140.843 39.8434 142.343 38.3432C143.844 36.8429 145.878 36 148 36C150.122 36 152.157 36.8429 153.657 38.3432C155.157 39.8434 156 41.8783 156 44V120C156 123.183 157.264 126.235 159.515 128.485C161.765 130.736 164.818 132 168 132C171.183 132 174.235 130.736 176.485 128.485C178.736 126.235 180 123.183 180 120V76C180 73.8783 180.843 71.8434 182.343 70.3432C183.844 68.8429 185.878 68 188 68C190.122 68 192.157 68.8429 193.657 70.3432C195.157 71.8434 196 73.8783 196 76V152Z" fill="white"/>
</svg>
