<svg width="23" height="23" viewBox="0 0 23 23" fill="none" xmlns="http://www.w3.org/2000/svg">
<g clip-path="url(#clip0_2999_25)" filter="url(#filter0_dd_2999_25)">
<path d="M8 7.5L11 10L15 5M11.5 14.5C10.5807 14.5 9.6705 14.3189 8.82122 13.9672C7.97194 13.6154 7.20026 13.0998 6.55025 12.4497C5.90024 11.7997 5.38463 11.0281 5.03284 10.1788C4.68106 9.32951 4.5 8.41925 4.5 7.5C4.5 6.58075 4.68106 5.6705 5.03284 4.82122C5.38463 3.97194 5.90024 3.20026 6.55025 2.55025C7.20026 1.90024 7.97194 1.38463 8.82122 1.03284C9.6705 0.68106 10.5807 0.5 11.5 0.5C13.3565 0.5 15.137 1.2375 16.4497 2.55025C17.7625 3.86301 18.5 5.64348 18.5 7.5C18.5 9.35652 17.7625 11.137 16.4497 12.4497C15.137 13.7625 13.3565 14.5 11.5 14.5Z" stroke="black"/>
</g>
<defs>
<filter id="filter0_dd_2999_25" x="0" y="0" width="23" height="23" filterUnits="userSpaceOnUse" color-interpolation-filters="sRGB">
<feFlood flood-opacity="0" result="BackgroundImageFix"/>
<feColorMatrix in="SourceAlpha" type="matrix" values="0 0 0 0 0 0 0 0 0 0 0 0 0 0 0 0 0 0 127 0" result="hardAlpha"/>
<feOffset dy="4"/>
<feGaussianBlur stdDeviation="2"/>
<feComposite in2="hardAlpha" operator="out"/>
<feColorMatrix type="matrix" values="0 0 0 0 0 0 0 0 0 0 0 0 0 0 0 0 0 0 0.25 0"/>
<feBlend mode="normal" in2="BackgroundImageFix" result="effect1_dropShadow_2999_25"/>
<feColorMatrix in="SourceAlpha" type="matrix" values="0 0 0 0 0 0 0 0 0 0 0 0 0 0 0 0 0 0 127 0" result="hardAlpha"/>
<feOffset dy="4"/>
<feGaussianBlur stdDeviation="2"/>
<feComposite in2="hardAlpha" operator="out"/>
<feColorMatrix type="matrix" values="0 0 0 0 0 0 0 0 0 0 0 0 0 0 0 0 0 0 0.25 0"/>
<feBlend mode="normal" in2="effect1_dropShadow_2999_25" result="effect2_dropShadow_2999_25"/>
<feBlend mode="normal" in="SourceGraphic" in2="effect2_dropShadow_2999_25" result="shape"/>
</filter>
<clipPath id="clip0_2999_25">
<rect width="15" height="15" fill="white" transform="translate(4)"/>
</clipPath>
</defs>
</svg>
