<svg width="24" height="24" viewBox="0 0 24 24" fill="none" xmlns="http://www.w3.org/2000/svg">
<path d="M17.7853 1.12808L16.47 5.22529L17.7951 5.50377L17.6499 6.22339L15.2007 8.46604L12.7866 6.44455L11.6895 6.25269C12.0747 5.58097 12.3778 4.7166 12.4585 3.92797C12.9282 3.8211 14.0954 3.66196 14.6191 3.45646C14.3849 2.97435 13.2037 2.66399 12.3363 2.69164C12.2551 1.72072 11.9201 1.32974 10.7353 1.38374C9.5505 1.43769 9.18975 1.69316 9.32156 3.09107C8.43722 3.28452 7.53577 3.68244 7.45875 4.36063C7.82766 4.34624 9.00375 4.22488 9.36769 4.21949C9.39862 4.88043 9.57394 5.52482 9.83503 5.92457L8.187 5.63746L4.96875 9.18383L8.59425 11.803L8.67042 12.5925L7.06777 22.7058H8.86659L10.6626 14.7722L12.9067 22.7058H14.6631L14.496 21.9367L15.2973 22.7058L18.2533 7.58713C18.4882 7.37432 18.6876 7.18958 18.8202 7.05688C18.8285 6.56296 18.7013 6.16897 18.5814 5.90844L18.627 5.67866L19.9037 5.94697L20.2995 1.58211L19.2286 4.80622L18.7201 4.70047L19.0312 1.29463L18.0202 4.55479L17.4944 4.44543L17.7853 1.12808ZM19.0312 1.29463L19.0312 1.29416H19.0312V1.29463ZM8.57081 7.19015L8.58694 10.1946L7.11038 9.08132L8.57081 7.19015ZM12.6973 8.18633L15.082 10.3396C15.082 10.3396 16.1598 9.42763 17.1855 8.53349L14.4931 21.9192L12.4863 12.66L12.6973 8.18633Z" fill="white"/>
</svg>
