<svg width="24" height="24" viewBox="0 0 24 24" fill="none" xmlns="http://www.w3.org/2000/svg">
<path fill-rule="evenodd" clip-rule="evenodd" d="M20.97 3.72851L20.4765 3.65001L20.347 3.16701L21.0915 2.96701L20.97 3.72851ZM14.36 10.6435L13.9345 10.9055L13.9335 10.9045L13.932 10.902L13.927 10.894L13.91 10.8655C13.896 10.8415 13.875 10.8065 13.85 10.762C13.7799 10.6396 13.7124 10.5157 13.6475 10.3905C13.442 9.99689 13.2626 9.59018 13.1105 9.17301C12.9415 8.70101 12.7965 8.16051 12.774 7.63751C12.752 7.11651 12.849 6.55101 13.237 6.10751C13.5855 5.70951 14.2425 5.34301 14.933 5.02601C15.6485 4.69651 16.4905 4.38051 17.288 4.10701C18.2758 3.76965 19.2736 3.46218 20.28 3.18501L20.33 3.17101L20.3475 3.16601L20.4775 3.64951L20.971 3.72801L20.968 3.74651L20.9595 3.79951C20.9095 4.10625 20.8572 4.41259 20.8025 4.71851C20.6693 5.47081 20.5239 6.22091 20.3665 6.96851C20.1885 7.80901 19.9815 8.69001 19.762 9.42751C19.6646 9.76483 19.5499 10.0969 19.4185 10.4225C19.3045 10.6975 19.1695 10.9645 19.0055 11.1525C18.6545 11.5535 18.108 11.679 17.6305 11.711C17.1325 11.7445 16.5805 11.684 16.084 11.596C15.6412 11.5162 15.2026 11.4144 14.77 11.291C14.5929 11.2412 14.4169 11.1878 14.242 11.131L14.2105 11.12L14.202 11.117L14.1995 11.1165H14.1985L14.3605 10.643L14.36 10.6435ZM14.36 10.6435L13.9345 10.9055L14.0285 11.058L14.1985 11.1165L14.36 10.6435ZM14.696 10.227C15.2079 10.3868 15.729 10.5154 16.2565 10.612C16.7185 10.6935 17.1805 10.7395 17.5635 10.7135C17.968 10.6865 18.171 10.5875 18.2525 10.4945C18.3045 10.4345 18.3895 10.2925 18.4945 10.0395C18.6125 9.74614 18.7155 9.44692 18.803 9.14301C19.0115 8.44301 19.212 7.59151 19.388 6.76201C19.5569 5.95947 19.7115 5.15402 19.852 4.34601L19.6975 4.39101C19.143 4.55451 18.394 4.78501 17.6125 5.05301C16.8295 5.32151 16.023 5.62501 15.3505 5.93451C14.6525 6.25551 14.1815 6.54701 13.9895 6.76651C13.836 6.94151 13.757 7.21101 13.7735 7.59451C13.7895 7.97601 13.899 8.40951 14.052 8.83501C14.2271 9.31629 14.4425 9.78194 14.696 10.227ZM5.13146 4.98701L5.00196 5.47001L4.50796 5.54851L4.38696 4.78751L5.13196 4.98751L5.13146 4.98701ZM9.97246 11.1535L10.398 11.415L10.399 11.414L10.4 11.412L10.404 11.4055L10.4185 11.3815C10.4939 11.2531 10.5659 11.1227 10.6345 10.9905C10.7665 10.7365 10.935 10.382 11.076 9.99001C11.215 9.60201 11.336 9.15251 11.3545 8.71451C11.3735 8.27801 11.2925 7.79101 10.9555 7.40601C10.6575 7.06501 10.106 6.76101 9.54596 6.50301C8.96046 6.23351 8.27296 5.97551 7.62346 5.75301C6.81902 5.47826 6.00649 5.22782 5.18696 5.00201L5.14596 4.99101L5.13146 4.98701L5.00196 5.47001L4.50796 5.54851L4.51046 5.56351L4.51746 5.60701L4.54446 5.77001C4.67938 6.57877 4.83124 7.38462 4.99996 8.18701C5.14496 8.87101 5.31396 9.58951 5.49296 10.192C5.58296 10.493 5.67696 10.7735 5.77546 11.01C5.86896 11.235 5.98346 11.4645 6.12746 11.6285C6.43746 11.9835 6.91396 12.0885 7.30846 12.1145C7.72446 12.1425 8.18096 12.092 8.58846 12.0205C9.10011 11.9286 9.60468 11.801 10.0985 11.6385L10.124 11.63L10.1315 11.6275L10.134 11.6265L9.97246 11.1535ZM9.97246 11.1535L10.398 11.415L10.304 11.568L10.134 11.6265L9.97246 11.1535ZM9.63596 10.7365C9.83133 10.3893 9.99805 10.0268 10.1345 9.65251C10.257 9.31101 10.343 8.96851 10.3555 8.67151C10.3685 8.37251 10.3055 8.18151 10.203 8.06401C10.0615 7.90301 9.69646 7.67301 9.12796 7.41151C8.58596 7.16201 7.93396 6.91651 7.29896 6.69901C6.7458 6.51017 6.18867 6.33313 5.62796 6.16801L5.62996 6.18051C5.71496 6.66051 5.83596 7.30851 5.97846 7.98001C6.12096 8.65301 6.28346 9.34151 6.45146 9.90701C6.53596 10.19 6.61896 10.4345 6.69896 10.6265C6.78396 10.83 6.84796 10.9335 6.87996 10.9705C6.92096 11.017 7.05346 11.0955 7.37546 11.117C7.67596 11.137 8.04296 11.101 8.41496 11.0355C8.82778 10.9611 9.23557 10.8616 9.63596 10.7365ZM8.54096 15.5035C8.41396 15.5105 8.35196 15.5285 8.33596 15.5355C8.10946 15.638 7.42146 15.878 6.82746 16.0805C6.52246 16.185 6.22996 16.283 6.01396 16.3555L5.99996 16.3605V19.062C6.08796 19.058 6.18246 19.0545 6.27896 19.051C6.69296 19.036 7.18546 19.021 7.39896 19.03C8.29496 19.0655 8.96796 19.2775 9.59096 19.474L9.60446 19.4785C10.1885 19.6625 10.7295 19.8315 11.438 19.885C11.638 19.9 11.8325 19.9195 12.014 19.9375H12.0165C12.7135 20.0075 13.1725 20.0425 13.528 19.9135C13.8045 19.813 14.817 19.3435 15.838 18.83C16.343 18.576 16.838 18.3175 17.2315 18.096C17.429 17.985 17.5965 17.886 17.725 17.803C17.789 17.7615 17.84 17.7265 17.879 17.698C17.8943 17.6868 17.9093 17.6751 17.924 17.663L17.938 17.651C17.988 17.6005 18.041 17.4245 17.955 17.259C17.9145 17.1816 17.8476 17.1213 17.7665 17.089C17.6665 17.0455 17.4965 17.012 17.2265 17.0565C16.6175 17.1565 15.89 17.4495 15.1635 17.745L15.1535 17.7495C14.7965 17.8945 14.4385 18.04 14.121 18.146C13.816 18.2475 13.4775 18.3385 13.1825 18.321C12.7775 18.296 12.067 18.191 11.481 18.096C11.1442 18.0416 10.8079 17.9846 10.472 17.925L10.407 17.9135L10.384 17.909L10.479 16.917L12.764 16.9445H12.769C12.7957 16.9416 12.8221 16.9366 12.848 16.9295C12.927 16.9095 13.0625 16.86 13.233 16.7395C13.2855 16.702 13.3545 16.633 13.419 16.5405C13.4439 16.5043 13.4666 16.4665 13.487 16.4275C13.2084 16.4098 12.9316 16.3707 12.659 16.3105C12.5105 16.2782 12.3633 16.2407 12.2175 16.198L12.2005 16.193L9.40196 15.57L9.37546 15.5655C9.22648 15.5408 9.07651 15.5224 8.92596 15.5105C8.79791 15.4999 8.66931 15.4975 8.54096 15.5035ZM9.49996 15.08L9.59046 14.5885L9.59946 14.59L12.4585 15.226L12.4795 15.2325L12.4835 15.234L12.5025 15.2395L12.5815 15.262C12.651 15.281 12.751 15.307 12.87 15.333C13.113 15.3855 13.417 15.434 13.698 15.434C13.9795 15.434 14.2855 15.539 14.4505 15.838C14.5915 16.094 14.5565 16.371 14.507 16.554C14.461 16.7158 14.3925 16.8703 14.3035 17.013C14.4555 16.953 14.617 16.888 14.7865 16.819L14.8175 16.806C15.5065 16.526 16.3325 16.19 17.064 16.0695C17.914 15.9305 18.5515 16.2355 18.843 16.7995C19.1 17.297 19.043 17.953 18.6505 18.352C18.552 18.452 18.4055 18.5535 18.2655 18.644C18.0872 18.7569 17.9058 18.8647 17.7215 18.9675C17.309 19.1995 16.7985 19.466 16.2865 19.7235C15.2755 20.232 14.2105 20.7295 13.8685 20.8535C13.2755 21.0685 12.5895 21 11.98 20.939L11.9165 20.9325C11.732 20.9136 11.5473 20.8969 11.3625 20.8825C10.5325 20.8195 9.89646 20.619 9.31546 20.436L9.30296 20.432C8.67796 20.235 8.11496 20.0595 7.35896 20.029C7.19296 20.0225 6.74596 20.0345 6.31496 20.0505C6.07226 20.0593 5.82959 20.0691 5.58696 20.08L5.52246 20.083L4.99946 20.107V15.639L5.43796 15.4935C5.79377 15.3753 6.14911 15.2556 6.50396 15.1345C7.12596 14.922 7.75296 14.7015 7.92396 14.6245C8.10746 14.5415 8.31596 14.5145 8.48296 14.5045C8.66046 14.4945 8.84296 14.502 9.00246 14.514C9.19446 14.529 9.38566 14.5529 9.57546 14.5855L9.58596 14.5875H9.58896L9.58996 14.588H9.59096L9.49996 15.08Z" fill="white"/>
<path fill-rule="evenodd" clip-rule="evenodd" d="M17.575 6.62002C17.6249 6.6627 17.6659 6.71479 17.6957 6.77332C17.7254 6.83184 17.7434 6.89566 17.7485 6.96113C17.7536 7.02659 17.7458 7.09243 17.7254 7.15486C17.7051 7.2173 17.6727 7.27512 17.63 7.32502C16.1395 9.06402 14.284 11.6125 13.465 13.684C13.4408 13.7451 13.4049 13.8008 13.3592 13.848C13.3135 13.8951 13.2589 13.9328 13.1987 13.9589C13.1384 13.985 13.0736 13.999 13.0079 14C12.9423 14.0011 12.877 13.9892 12.816 13.965C12.7549 13.9409 12.6992 13.9049 12.652 13.8592C12.6049 13.8135 12.5672 13.759 12.5411 13.6987C12.515 13.6385 12.501 13.5736 12.5 13.508C12.4989 13.4423 12.5108 13.3771 12.535 13.316C13.4165 11.0865 15.3605 8.43602 16.87 6.67452C16.9563 6.57388 17.0791 6.51165 17.2113 6.50152C17.3435 6.4914 17.4743 6.5342 17.575 6.62052V6.62002ZM7.68998 8.22402C7.63841 8.26472 7.59538 8.31518 7.56332 8.37251C7.53127 8.42985 7.51083 8.49294 7.50317 8.55818C7.49551 8.62342 7.50078 8.68953 7.51867 8.75273C7.53657 8.81593 7.56675 8.87499 7.60748 8.92652C8.72848 10.349 9.95247 12.1695 10.5335 13.6795C10.5834 13.8 10.6784 13.8963 10.7982 13.9478C10.9181 13.9992 11.0533 14.0018 11.175 13.955C11.2968 13.9081 11.3954 13.8156 11.4498 13.697C11.5043 13.5785 11.5102 13.4434 11.4665 13.3205C10.831 11.6685 9.53248 9.75302 8.39248 8.30752C8.31044 8.20338 8.1904 8.13609 8.05876 8.12043C7.92712 8.10477 7.79415 8.14203 7.68998 8.22402Z" fill="white"/>
<path d="M3 14.5H6V21H3V14.5Z" fill="white"/>
</svg>
