<svg width="24" height="24" viewBox="0 0 24 24" fill="none" xmlns="http://www.w3.org/2000/svg">
<path d="M4 5.6842V11.0526C4 11.0526 4 13.7368 10.2222 13.7368C16.4444 13.7368 16.4444 11.0526 16.4444 11.0526V5.6842" stroke="#84919A" stroke-width="1.5" stroke-linecap="round" stroke-linejoin="round"/>
<path d="M10.2222 19.1053C4 19.1053 4 16.4211 4 16.4211V11.0526M10.2222 3C16.4444 3 16.4444 5.68421 16.4444 5.68421C16.4444 5.68421 16.4444 8.36842 10.2222 8.36842C4 8.36842 4 5.68421 4 5.68421C4 5.68421 4 3 10.2222 3ZM17.3333 19.1053C17.8048 19.1053 18.257 18.9167 18.5904 18.5811C18.9238 18.2455 19.1111 17.7904 19.1111 17.3158C19.1111 16.8412 18.9238 16.386 18.5904 16.0504C18.257 15.7148 17.8048 15.5263 17.3333 15.5263C16.8618 15.5263 16.4097 15.7148 16.0763 16.0504C15.7429 16.386 15.5556 16.8412 15.5556 17.3158C15.5556 17.7904 15.7429 18.2455 16.0763 18.5811C16.4097 18.9167 16.8618 19.1053 17.3333 19.1053Z" stroke="#84919A" stroke-width="1.5" stroke-linecap="round" stroke-linejoin="round"/>
<path d="M17.3334 20C18.0407 20 18.7189 19.7172 19.219 19.2138C19.7191 18.7104 20.0001 18.0277 20.0001 17.3158C20.0001 16.6039 19.7191 15.9212 19.219 15.4178C18.7189 14.9144 18.0407 14.6316 17.3334 14.6316C16.6262 14.6316 15.9479 14.9144 15.4478 15.4178C14.9477 15.9212 14.6667 16.6039 14.6667 17.3158C14.6667 18.0277 14.9477 18.7104 15.4478 19.2138C15.9479 19.7172 16.6262 20 17.3334 20Z" stroke="#84919A" stroke-width="1.5" stroke-linecap="round" stroke-linejoin="round"/>
</svg>
