<svg width="24" height="24" viewBox="0 0 24 24" fill="none" xmlns="http://www.w3.org/2000/svg">
<path d="M8.26667 11H11.4667V20H8.26667V11ZM9.33333 19H10.4V12H9.33333V19ZM12.5333 13H15.7333V20H12.5333V13ZM13.6 19H14.6667V14H13.6V19ZM4 15H7.2V20H4V15ZM5.06667 19H6.13333V16H5.06667V19ZM16.8 9H20V20H16.8V9ZM17.8667 19H18.9333V10H17.8667V19ZM15.575 8.85156C15.6806 9.0651 15.7333 9.28125 15.7333 9.5C15.7333 9.70833 15.6917 9.90365 15.6083 10.0859C15.525 10.2682 15.4111 10.4271 15.2667 10.5625C15.1222 10.6979 14.9528 10.8047 14.7583 10.8828C14.5639 10.9609 14.3556 11 14.1333 11C13.9111 11 13.7028 10.9609 13.5083 10.8828C13.3139 10.8047 13.1444 10.6979 13 10.5625C12.8556 10.4271 12.7417 10.2682 12.6583 10.0859C12.575 9.90365 12.5333 9.70833 12.5333 9.5V9.40625C12.5333 9.375 12.5361 9.34375 12.5417 9.3125L10.975 8.57812C10.8306 8.71354 10.6611 8.81771 10.4667 8.89062C10.2722 8.96354 10.0722 9 9.86667 9C9.63333 9 9.40278 8.95052 9.175 8.85156L7.04167 10.8516C7.14722 11.0651 7.2 11.2812 7.2 11.5C7.2 11.7083 7.15833 11.9036 7.075 12.0859C6.99167 12.2682 6.87778 12.4271 6.73333 12.5625C6.58889 12.6979 6.41944 12.8047 6.225 12.8828C6.03056 12.9609 5.82222 13 5.6 13C5.37778 13 5.16944 12.9609 4.975 12.8828C4.78056 12.8047 4.61111 12.6979 4.46667 12.5625C4.32222 12.4271 4.20833 12.2682 4.125 12.0859C4.04167 11.9036 4 11.7083 4 11.5C4 11.2917 4.04167 11.0964 4.125 10.9141C4.20833 10.7318 4.32222 10.5729 4.46667 10.4375C4.61111 10.3021 4.78056 10.1953 4.975 10.1172C5.16944 10.0391 5.37778 10 5.6 10C5.83333 10 6.06389 10.0495 6.29167 10.1484L8.425 8.14844C8.31944 7.9349 8.26667 7.71875 8.26667 7.5C8.26667 7.29167 8.30833 7.09635 8.39167 6.91406C8.475 6.73177 8.58889 6.57292 8.73333 6.4375C8.87778 6.30208 9.04722 6.19531 9.24167 6.11719C9.43611 6.03906 9.64444 6 9.86667 6C10.0889 6 10.2972 6.03906 10.4917 6.11719C10.6861 6.19531 10.8556 6.30208 11 6.4375C11.1444 6.57292 11.2583 6.73177 11.3417 6.91406C11.425 7.09635 11.4667 7.29167 11.4667 7.5V7.59375C11.4667 7.625 11.4639 7.65625 11.4583 7.6875L13.025 8.42188C13.1694 8.28646 13.3389 8.18229 13.5333 8.10938C13.7278 8.03646 13.9278 8 14.1333 8C14.3667 8 14.5972 8.04948 14.825 8.14844L16.9583 6.14844C16.8528 5.9349 16.8 5.71875 16.8 5.5C16.8 5.29167 16.8417 5.09635 16.925 4.91406C17.0083 4.73177 17.1222 4.57292 17.2667 4.4375C17.4111 4.30208 17.5806 4.19531 17.775 4.11719C17.9694 4.03906 18.1778 4 18.4 4C18.6222 4 18.8306 4.03906 19.025 4.11719C19.2194 4.19531 19.3889 4.30208 19.5333 4.4375C19.6778 4.57292 19.7917 4.73177 19.875 4.91406C19.9583 5.09635 20 5.29167 20 5.5C20 5.70833 19.9583 5.90365 19.875 6.08594C19.7917 6.26823 19.6778 6.42708 19.5333 6.5625C19.3889 6.69792 19.2194 6.80469 19.025 6.88281C18.8306 6.96094 18.6222 7 18.4 7C18.1667 7 17.9361 6.95052 17.7083 6.85156L15.575 8.85156ZM5.6 12C5.74444 12 5.86944 11.9505 5.975 11.8516C6.08056 11.7526 6.13333 11.6354 6.13333 11.5C6.13333 11.3646 6.08056 11.2474 5.975 11.1484C5.86944 11.0495 5.74444 11 5.6 11C5.45556 11 5.33056 11.0495 5.225 11.1484C5.11944 11.2474 5.06667 11.3646 5.06667 11.5C5.06667 11.6354 5.11944 11.7526 5.225 11.8516C5.33056 11.9505 5.45556 12 5.6 12ZM18.4 5C18.2556 5 18.1306 5.04948 18.025 5.14844C17.9194 5.2474 17.8667 5.36458 17.8667 5.5C17.8667 5.63542 17.9194 5.7526 18.025 5.85156C18.1306 5.95052 18.2556 6 18.4 6C18.5444 6 18.6694 5.95052 18.775 5.85156C18.8806 5.7526 18.9333 5.63542 18.9333 5.5C18.9333 5.36458 18.8806 5.2474 18.775 5.14844C18.6694 5.04948 18.5444 5 18.4 5ZM9.86667 8C10.0111 8 10.1361 7.95052 10.2417 7.85156C10.3472 7.7526 10.4 7.63542 10.4 7.5C10.4 7.36458 10.3472 7.2474 10.2417 7.14844C10.1361 7.04948 10.0111 7 9.86667 7C9.72222 7 9.59722 7.04948 9.49167 7.14844C9.38611 7.2474 9.33333 7.36458 9.33333 7.5C9.33333 7.63542 9.38611 7.7526 9.49167 7.85156C9.59722 7.95052 9.72222 8 9.86667 8ZM14.1333 10C14.2778 10 14.4028 9.95052 14.5083 9.85156C14.6139 9.7526 14.6667 9.63542 14.6667 9.5C14.6667 9.36458 14.6139 9.2474 14.5083 9.14844C14.4028 9.04948 14.2778 9 14.1333 9C13.9889 9 13.8639 9.04948 13.7583 9.14844C13.6528 9.2474 13.6 9.36458 13.6 9.5C13.6 9.63542 13.6528 9.7526 13.7583 9.85156C13.8639 9.95052 13.9889 10 14.1333 10Z" fill="#84919A"/>
</svg>
